<mxfile host="app.diagrams.net" modified="2022-10-12T08:20:45.981Z" agent="5.0 (Macintosh; Intel Mac OS X 10_15_7) AppleWebKit/537.36 (KHTML, like Gecko) Chrome/104.0.5112.79 Safari/537.36" etag="5OabqOahqCUR1VbvJL5n" version="20.3.6" type="github" pages="4">
  <diagram name="Page-1" id="c7488fd3-1785-93aa-aadb-54a6760d102a">
    <mxGraphModel dx="1214" dy="703" grid="1" gridSize="10" guides="1" tooltips="1" connect="1" arrows="1" fold="1" page="1" pageScale="1" pageWidth="1100" pageHeight="850" background="none" math="0" shadow="0">
      <root>
        <mxCell id="0" />
        <mxCell id="1" parent="0" />
        <mxCell id="2b4e8129b02d487f-1" value="Pool" style="swimlane;html=1;childLayout=stackLayout;horizontal=1;startSize=20;horizontalStack=0;rounded=0;shadow=0;labelBackgroundColor=none;strokeWidth=1;fontFamily=Verdana;fontSize=8;align=center;" parent="1" vertex="1">
          <mxGeometry x="180" y="70" width="680" height="470" as="geometry" />
        </mxCell>
        <mxCell id="2b4e8129b02d487f-2" value="Lane 1" style="swimlane;html=1;startSize=20;horizontal=0;" parent="2b4e8129b02d487f-1" vertex="1">
          <mxGeometry y="20" width="680" height="150" as="geometry" />
        </mxCell>
        <mxCell id="2b4e8129b02d487f-18" style="edgeStyle=orthogonalEdgeStyle;rounded=0;html=1;labelBackgroundColor=none;startArrow=none;startFill=0;startSize=5;endArrow=classicThin;endFill=1;endSize=5;jettySize=auto;orthogonalLoop=1;strokeWidth=1;fontFamily=Verdana;fontSize=8" parent="2b4e8129b02d487f-2" source="2b4e8129b02d487f-5" target="2b4e8129b02d487f-6" edge="1">
          <mxGeometry relative="1" as="geometry" />
        </mxCell>
        <mxCell id="2b4e8129b02d487f-5" value="" style="ellipse;whiteSpace=wrap;html=1;rounded=0;shadow=0;labelBackgroundColor=none;strokeWidth=1;fontFamily=Verdana;fontSize=8;align=center;" parent="2b4e8129b02d487f-2" vertex="1">
          <mxGeometry x="60" y="60" width="30" height="30" as="geometry" />
        </mxCell>
        <mxCell id="2b4e8129b02d487f-6" value="" style="rounded=1;whiteSpace=wrap;html=1;shadow=0;labelBackgroundColor=none;strokeWidth=1;fontFamily=Verdana;fontSize=8;align=center;" parent="2b4e8129b02d487f-2" vertex="1">
          <mxGeometry x="120" y="56.49999999999997" width="70" height="37" as="geometry" />
        </mxCell>
        <mxCell id="2b4e8129b02d487f-20" style="edgeStyle=orthogonalEdgeStyle;rounded=0;html=1;labelBackgroundColor=none;startArrow=none;startFill=0;startSize=5;endArrow=classicThin;endFill=1;endSize=5;jettySize=auto;orthogonalLoop=1;strokeWidth=1;fontFamily=Verdana;fontSize=8" parent="2b4e8129b02d487f-2" source="2b4e8129b02d487f-7" target="2b4e8129b02d487f-8" edge="1">
          <mxGeometry relative="1" as="geometry" />
        </mxCell>
        <mxCell id="2b4e8129b02d487f-7" value="" style="rounded=1;whiteSpace=wrap;html=1;shadow=0;labelBackgroundColor=none;strokeWidth=1;fontFamily=Verdana;fontSize=8;align=center;" parent="2b4e8129b02d487f-2" vertex="1">
          <mxGeometry x="230" y="56.49999999999997" width="70" height="37" as="geometry" />
        </mxCell>
        <mxCell id="2b4e8129b02d487f-8" value="" style="ellipse;whiteSpace=wrap;html=1;rounded=0;shadow=0;labelBackgroundColor=none;strokeWidth=2;fontFamily=Verdana;fontSize=8;align=center;" parent="2b4e8129b02d487f-2" vertex="1">
          <mxGeometry x="330" y="60" width="30" height="30" as="geometry" />
        </mxCell>
        <mxCell id="2b4e8129b02d487f-22" style="edgeStyle=orthogonalEdgeStyle;rounded=0;html=1;entryX=0;entryY=0.5;labelBackgroundColor=none;startArrow=none;startFill=0;startSize=5;endArrow=classicThin;endFill=1;endSize=5;jettySize=auto;orthogonalLoop=1;strokeWidth=1;fontFamily=Verdana;fontSize=8" parent="2b4e8129b02d487f-2" source="2b4e8129b02d487f-9" target="2b4e8129b02d487f-10" edge="1">
          <mxGeometry relative="1" as="geometry" />
        </mxCell>
        <mxCell id="2b4e8129b02d487f-9" value="" style="rounded=1;whiteSpace=wrap;html=1;shadow=0;labelBackgroundColor=none;strokeWidth=1;fontFamily=Verdana;fontSize=8;align=center;" parent="2b4e8129b02d487f-2" vertex="1">
          <mxGeometry x="420" y="56.49999999999997" width="70" height="37" as="geometry" />
        </mxCell>
        <mxCell id="2b4e8129b02d487f-23" style="edgeStyle=orthogonalEdgeStyle;rounded=0;html=1;labelBackgroundColor=none;startArrow=none;startFill=0;startSize=5;endArrow=classicThin;endFill=1;endSize=5;jettySize=auto;orthogonalLoop=1;strokeWidth=1;fontFamily=Verdana;fontSize=8" parent="2b4e8129b02d487f-2" source="2b4e8129b02d487f-10" target="2b4e8129b02d487f-11" edge="1">
          <mxGeometry relative="1" as="geometry" />
        </mxCell>
        <mxCell id="2b4e8129b02d487f-10" value="" style="shape=mxgraph.bpmn.shape;html=1;verticalLabelPosition=bottom;labelBackgroundColor=#ffffff;verticalAlign=top;perimeter=rhombusPerimeter;background=gateway;outline=none;symbol=parallelGw;rounded=1;shadow=0;strokeWidth=1;fontFamily=Verdana;fontSize=8;align=center;" parent="2b4e8129b02d487f-2" vertex="1">
          <mxGeometry x="550" y="60" width="30" height="30" as="geometry" />
        </mxCell>
        <mxCell id="2b4e8129b02d487f-11" value="" style="ellipse;whiteSpace=wrap;html=1;rounded=0;shadow=0;labelBackgroundColor=none;strokeWidth=2;fontFamily=Verdana;fontSize=8;align=center;" parent="2b4e8129b02d487f-2" vertex="1">
          <mxGeometry x="610" y="60" width="30" height="30" as="geometry" />
        </mxCell>
        <mxCell id="2b4e8129b02d487f-3" value="Lane 2" style="swimlane;html=1;startSize=20;horizontal=0;" parent="2b4e8129b02d487f-1" vertex="1">
          <mxGeometry y="170" width="680" height="150" as="geometry" />
        </mxCell>
        <mxCell id="2b4e8129b02d487f-26" style="edgeStyle=orthogonalEdgeStyle;rounded=0;html=1;labelBackgroundColor=none;startArrow=none;startFill=0;startSize=5;endArrow=classicThin;endFill=1;endSize=5;jettySize=auto;orthogonalLoop=1;strokeWidth=1;fontFamily=Verdana;fontSize=8" parent="2b4e8129b02d487f-3" source="2b4e8129b02d487f-12" target="2b4e8129b02d487f-13" edge="1">
          <mxGeometry relative="1" as="geometry" />
        </mxCell>
        <mxCell id="2b4e8129b02d487f-12" value="" style="rounded=1;whiteSpace=wrap;html=1;shadow=0;labelBackgroundColor=none;strokeWidth=1;fontFamily=Verdana;fontSize=8;align=center;" parent="2b4e8129b02d487f-3" vertex="1">
          <mxGeometry x="120" y="49.99999999999996" width="70" height="37" as="geometry" />
        </mxCell>
        <mxCell id="2b4e8129b02d487f-13" value="" style="strokeWidth=1;html=1;shape=mxgraph.flowchart.decision;whiteSpace=wrap;rounded=1;shadow=0;labelBackgroundColor=none;fontFamily=Verdana;fontSize=8;align=center;" parent="2b4e8129b02d487f-3" vertex="1">
          <mxGeometry x="250" y="53.499999999999915" width="30" height="30" as="geometry" />
        </mxCell>
        <mxCell id="2b4e8129b02d487f-4" value="Lane 3" style="swimlane;html=1;startSize=20;horizontal=0;" parent="2b4e8129b02d487f-1" vertex="1">
          <mxGeometry y="320" width="680" height="150" as="geometry" />
        </mxCell>
        <mxCell id="2b4e8129b02d487f-28" style="edgeStyle=orthogonalEdgeStyle;rounded=0;html=1;labelBackgroundColor=none;startArrow=none;startFill=0;startSize=5;endArrow=classicThin;endFill=1;endSize=5;jettySize=auto;orthogonalLoop=1;strokeWidth=1;fontFamily=Verdana;fontSize=8;" parent="2b4e8129b02d487f-4" source="2b4e8129b02d487f-14" target="2b4e8129b02d487f-15" edge="1">
          <mxGeometry relative="1" as="geometry" />
        </mxCell>
        <mxCell id="2b4e8129b02d487f-14" value="" style="rounded=1;whiteSpace=wrap;html=1;shadow=0;labelBackgroundColor=none;strokeWidth=1;fontFamily=Verdana;fontSize=8;align=center;" parent="2b4e8129b02d487f-4" vertex="1">
          <mxGeometry x="230" y="57.00000000000003" width="70" height="37" as="geometry" />
        </mxCell>
        <mxCell id="2b4e8129b02d487f-29" value="Yes" style="edgeStyle=orthogonalEdgeStyle;rounded=0;html=1;entryX=0;entryY=0.5;labelBackgroundColor=none;startArrow=none;startFill=0;startSize=5;endArrow=classicThin;endFill=1;endSize=5;jettySize=auto;orthogonalLoop=1;strokeWidth=1;fontFamily=Verdana;fontSize=8" parent="2b4e8129b02d487f-4" source="2b4e8129b02d487f-15" target="2b4e8129b02d487f-16" edge="1">
          <mxGeometry x="-0.5006" y="6" relative="1" as="geometry">
            <mxPoint as="offset" />
          </mxGeometry>
        </mxCell>
        <mxCell id="2b4e8129b02d487f-15" value="" style="strokeWidth=1;html=1;shape=mxgraph.flowchart.decision;whiteSpace=wrap;rounded=1;shadow=0;labelBackgroundColor=none;fontFamily=Verdana;fontSize=8;align=center;" parent="2b4e8129b02d487f-4" vertex="1">
          <mxGeometry x="330" y="60.500000000000064" width="30" height="30" as="geometry" />
        </mxCell>
        <mxCell id="2b4e8129b02d487f-30" style="edgeStyle=orthogonalEdgeStyle;rounded=0;html=1;labelBackgroundColor=none;startArrow=none;startFill=0;startSize=5;endArrow=classicThin;endFill=1;endSize=5;jettySize=auto;orthogonalLoop=1;strokeColor=#000000;strokeWidth=1;fontFamily=Verdana;fontSize=8;fontColor=#000000;" parent="2b4e8129b02d487f-4" source="2b4e8129b02d487f-16" target="2b4e8129b02d487f-17" edge="1">
          <mxGeometry relative="1" as="geometry" />
        </mxCell>
        <mxCell id="2b4e8129b02d487f-16" value="" style="shape=mxgraph.bpmn.shape;html=1;verticalLabelPosition=bottom;labelBackgroundColor=#ffffff;verticalAlign=top;perimeter=rhombusPerimeter;background=gateway;outline=none;symbol=parallelGw;rounded=1;shadow=0;strokeWidth=1;fontFamily=Verdana;fontSize=8;align=center;" parent="2b4e8129b02d487f-4" vertex="1">
          <mxGeometry x="440" y="60.500000000000064" width="30" height="30" as="geometry" />
        </mxCell>
        <mxCell id="2b4e8129b02d487f-17" value="" style="rounded=1;whiteSpace=wrap;html=1;shadow=0;labelBackgroundColor=none;strokeWidth=1;fontFamily=Verdana;fontSize=8;align=center;" parent="2b4e8129b02d487f-4" vertex="1">
          <mxGeometry x="530" y="57" width="70" height="37" as="geometry" />
        </mxCell>
        <mxCell id="2b4e8129b02d487f-24" style="edgeStyle=orthogonalEdgeStyle;rounded=0;html=1;labelBackgroundColor=none;startArrow=none;startFill=0;startSize=5;endArrow=classicThin;endFill=1;endSize=5;jettySize=auto;orthogonalLoop=1;strokeWidth=1;fontFamily=Verdana;fontSize=8" parent="2b4e8129b02d487f-1" source="2b4e8129b02d487f-6" target="2b4e8129b02d487f-12" edge="1">
          <mxGeometry relative="1" as="geometry" />
        </mxCell>
        <mxCell id="2b4e8129b02d487f-25" value="No" style="edgeStyle=orthogonalEdgeStyle;rounded=0;html=1;labelBackgroundColor=none;startArrow=none;startFill=0;startSize=5;endArrow=classicThin;endFill=1;endSize=5;jettySize=auto;orthogonalLoop=1;strokeWidth=1;fontFamily=Verdana;fontSize=8" parent="2b4e8129b02d487f-1" source="2b4e8129b02d487f-13" target="2b4e8129b02d487f-7" edge="1">
          <mxGeometry x="-0.9364" y="-15" relative="1" as="geometry">
            <mxPoint as="offset" />
          </mxGeometry>
        </mxCell>
        <mxCell id="2b4e8129b02d487f-27" value="Yes" style="edgeStyle=orthogonalEdgeStyle;rounded=0;html=1;labelBackgroundColor=none;startArrow=none;startFill=0;startSize=5;endArrow=classicThin;endFill=1;endSize=5;jettySize=auto;orthogonalLoop=1;strokeWidth=1;fontFamily=Verdana;fontSize=8" parent="2b4e8129b02d487f-1" source="2b4e8129b02d487f-13" target="2b4e8129b02d487f-14" edge="1">
          <mxGeometry x="-0.8947" y="15" relative="1" as="geometry">
            <mxPoint as="offset" />
          </mxGeometry>
        </mxCell>
        <mxCell id="2b4e8129b02d487f-31" style="edgeStyle=orthogonalEdgeStyle;rounded=0;html=1;entryX=0.5;entryY=1;labelBackgroundColor=none;startArrow=none;startFill=0;startSize=5;endArrow=classicThin;endFill=1;endSize=5;jettySize=auto;orthogonalLoop=1;strokeWidth=1;fontFamily=Verdana;fontSize=8" parent="2b4e8129b02d487f-1" source="2b4e8129b02d487f-17" target="2b4e8129b02d487f-10" edge="1">
          <mxGeometry relative="1" as="geometry" />
        </mxCell>
        <mxCell id="2b4e8129b02d487f-32" value="No" style="edgeStyle=orthogonalEdgeStyle;rounded=0;html=1;labelBackgroundColor=none;startArrow=none;startFill=0;startSize=5;endArrow=classicThin;endFill=1;endSize=5;jettySize=auto;orthogonalLoop=1;strokeWidth=1;fontFamily=Verdana;fontSize=8" parent="2b4e8129b02d487f-1" source="2b4e8129b02d487f-15" target="2b4e8129b02d487f-12" edge="1">
          <mxGeometry x="-0.9529" y="15" relative="1" as="geometry">
            <Array as="points">
              <mxPoint x="345" y="440" />
              <mxPoint x="155" y="440" />
            </Array>
            <mxPoint as="offset" />
          </mxGeometry>
        </mxCell>
        <mxCell id="2b4e8129b02d487f-33" style="edgeStyle=orthogonalEdgeStyle;rounded=0;html=1;labelBackgroundColor=none;startArrow=none;startFill=0;startSize=5;endArrow=classicThin;endFill=1;endSize=5;jettySize=auto;orthogonalLoop=1;strokeWidth=1;fontFamily=Verdana;fontSize=8" parent="2b4e8129b02d487f-1" source="2b4e8129b02d487f-16" target="2b4e8129b02d487f-9" edge="1">
          <mxGeometry relative="1" as="geometry" />
        </mxCell>
      </root>
    </mxGraphModel>
  </diagram>
  <diagram id="OoQg2mT1slcKT5mcIPTM" name="第 2 页">
    <mxGraphModel dx="1214" dy="703" grid="1" gridSize="10" guides="1" tooltips="1" connect="1" arrows="1" fold="1" page="1" pageScale="1" pageWidth="827" pageHeight="1169" math="0" shadow="0">
      <root>
        <mxCell id="0" />
        <mxCell id="1" parent="0" />
        <mxCell id="w9QUHjWhNPm_sNAr3cFe-1" value="" style="rounded=0;whiteSpace=wrap;html=1;" parent="1" vertex="1">
          <mxGeometry x="180" y="180" width="460" height="160" as="geometry" />
        </mxCell>
        <mxCell id="w9QUHjWhNPm_sNAr3cFe-2" value="" style="shape=cylinder3;whiteSpace=wrap;html=1;boundedLbl=1;backgroundOutline=1;size=15;rotation=-90;fillColor=#dae8fc;strokeColor=#6c8ebf;" parent="1" vertex="1">
          <mxGeometry x="365" y="135" width="60" height="250" as="geometry" />
        </mxCell>
        <mxCell id="w9QUHjWhNPm_sNAr3cFe-3" value="im_csc_im_hk4e" style="text;html=1;strokeColor=none;fillColor=none;align=center;verticalAlign=middle;whiteSpace=wrap;rounded=0;" parent="1" vertex="1">
          <mxGeometry x="365" y="245" width="60" height="30" as="geometry" />
        </mxCell>
        <mxCell id="w9QUHjWhNPm_sNAr3cFe-46" style="edgeStyle=none;rounded=0;orthogonalLoop=1;jettySize=auto;html=1;exitX=0;exitY=0.3333333333333333;exitDx=0;exitDy=0;exitPerimeter=0;entryX=0.5;entryY=1;entryDx=0;entryDy=0;entryPerimeter=0;" parent="1" source="w9QUHjWhNPm_sNAr3cFe-4" target="w9QUHjWhNPm_sNAr3cFe-2" edge="1">
          <mxGeometry relative="1" as="geometry" />
        </mxCell>
        <mxCell id="w9QUHjWhNPm_sNAr3cFe-4" value="csc_im_hk4e_msg_master" style="shape=umlActor;verticalLabelPosition=bottom;verticalAlign=top;html=1;outlineConnect=0;" parent="1" vertex="1">
          <mxGeometry x="820" y="160" width="30" height="60" as="geometry" />
        </mxCell>
        <mxCell id="w9QUHjWhNPm_sNAr3cFe-47" style="edgeStyle=none;rounded=0;orthogonalLoop=1;jettySize=auto;html=1;exitX=0;exitY=0.3333333333333333;exitDx=0;exitDy=0;exitPerimeter=0;entryX=0.5;entryY=1;entryDx=0;entryDy=0;entryPerimeter=0;" parent="1" source="w9QUHjWhNPm_sNAr3cFe-7" target="w9QUHjWhNPm_sNAr3cFe-2" edge="1">
          <mxGeometry relative="1" as="geometry" />
        </mxCell>
        <mxCell id="w9QUHjWhNPm_sNAr3cFe-7" value="csc_im_hk4e_msg_slave" style="shape=umlActor;verticalLabelPosition=bottom;verticalAlign=top;html=1;outlineConnect=0;" parent="1" vertex="1">
          <mxGeometry x="820" y="280" width="30" height="60" as="geometry" />
        </mxCell>
        <mxCell id="w9QUHjWhNPm_sNAr3cFe-8" value="" style="rounded=0;whiteSpace=wrap;html=1;" parent="1" vertex="1">
          <mxGeometry x="178.16" y="530" width="460" height="490" as="geometry" />
        </mxCell>
        <mxCell id="w9QUHjWhNPm_sNAr3cFe-9" value="" style="shape=cylinder3;whiteSpace=wrap;html=1;boundedLbl=1;backgroundOutline=1;size=15;rotation=-90;fillColor=#dae8fc;strokeColor=#6c8ebf;" parent="1" vertex="1">
          <mxGeometry x="363.16" y="570" width="60" height="250" as="geometry" />
        </mxCell>
        <mxCell id="w9QUHjWhNPm_sNAr3cFe-10" value="csc_im_hk4e_quality" style="text;html=1;strokeColor=none;fillColor=none;align=center;verticalAlign=middle;whiteSpace=wrap;rounded=0;" parent="1" vertex="1">
          <mxGeometry x="363.16" y="680" width="60" height="30" as="geometry" />
        </mxCell>
        <mxCell id="w9QUHjWhNPm_sNAr3cFe-15" value="im_plat_event" style="text;html=1;strokeColor=none;fillColor=none;align=center;verticalAlign=middle;whiteSpace=wrap;rounded=0;" parent="1" vertex="1">
          <mxGeometry x="363.16" y="340" width="60" height="30" as="geometry" />
        </mxCell>
        <mxCell id="w9QUHjWhNPm_sNAr3cFe-17" value="im_event" style="text;html=1;strokeColor=none;fillColor=none;align=center;verticalAlign=middle;whiteSpace=wrap;rounded=0;" parent="1" vertex="1">
          <mxGeometry x="354" y="1030" width="60" height="30" as="geometry" />
        </mxCell>
        <mxCell id="w9QUHjWhNPm_sNAr3cFe-21" value="" style="shape=cylinder3;whiteSpace=wrap;html=1;boundedLbl=1;backgroundOutline=1;size=15;rotation=-90;fillColor=#dae8fc;strokeColor=#6c8ebf;" parent="1" vertex="1">
          <mxGeometry x="363.16" y="670" width="60" height="250" as="geometry" />
        </mxCell>
        <mxCell id="w9QUHjWhNPm_sNAr3cFe-22" value="csc_im_hk4e_dialog" style="text;html=1;strokeColor=none;fillColor=none;align=center;verticalAlign=middle;whiteSpace=wrap;rounded=0;" parent="1" vertex="1">
          <mxGeometry x="363.16" y="780" width="60" height="30" as="geometry" />
        </mxCell>
        <mxCell id="w9QUHjWhNPm_sNAr3cFe-23" style="edgeStyle=orthogonalEdgeStyle;rounded=0;orthogonalLoop=1;jettySize=auto;html=1;exitX=1;exitY=0.3333333333333333;exitDx=0;exitDy=0;exitPerimeter=0;entryX=0.2;entryY=0.279;entryDx=0;entryDy=0;entryPerimeter=0;" parent="1" source="w9QUHjWhNPm_sNAr3cFe-24" edge="1">
          <mxGeometry relative="1" as="geometry">
            <mxPoint x="270.1600000000001" y="789.8600000000001" as="targetPoint" />
          </mxGeometry>
        </mxCell>
        <mxCell id="w9QUHjWhNPm_sNAr3cFe-25" value="dialog_event" style="edgeLabel;html=1;align=center;verticalAlign=middle;resizable=0;points=[];" parent="w9QUHjWhNPm_sNAr3cFe-23" vertex="1" connectable="0">
          <mxGeometry x="-0.4103" y="1" relative="1" as="geometry">
            <mxPoint x="8" y="-9" as="offset" />
          </mxGeometry>
        </mxCell>
        <mxCell id="w9QUHjWhNPm_sNAr3cFe-43" style="edgeStyle=none;rounded=0;orthogonalLoop=1;jettySize=auto;html=1;exitX=1;exitY=0.3333333333333333;exitDx=0;exitDy=0;exitPerimeter=0;entryX=0.5;entryY=0;entryDx=0;entryDy=0;entryPerimeter=0;" parent="1" source="w9QUHjWhNPm_sNAr3cFe-24" target="w9QUHjWhNPm_sNAr3cFe-9" edge="1">
          <mxGeometry relative="1" as="geometry" />
        </mxCell>
        <mxCell id="w9QUHjWhNPm_sNAr3cFe-44" style="edgeStyle=none;rounded=0;orthogonalLoop=1;jettySize=auto;html=1;exitX=1;exitY=0.3333333333333333;exitDx=0;exitDy=0;exitPerimeter=0;entryX=0.5;entryY=0;entryDx=0;entryDy=0;entryPerimeter=0;" parent="1" source="w9QUHjWhNPm_sNAr3cFe-24" target="w9QUHjWhNPm_sNAr3cFe-31" edge="1">
          <mxGeometry relative="1" as="geometry" />
        </mxCell>
        <mxCell id="w9QUHjWhNPm_sNAr3cFe-71" style="edgeStyle=none;rounded=0;orthogonalLoop=1;jettySize=auto;html=1;exitX=1;exitY=0.3333333333333333;exitDx=0;exitDy=0;exitPerimeter=0;entryX=0.5;entryY=0;entryDx=0;entryDy=0;entryPerimeter=0;" parent="1" source="w9QUHjWhNPm_sNAr3cFe-24" target="w9QUHjWhNPm_sNAr3cFe-57" edge="1">
          <mxGeometry relative="1" as="geometry" />
        </mxCell>
        <mxCell id="w9QUHjWhNPm_sNAr3cFe-72" value="im_robot_msg" style="edgeLabel;html=1;align=center;verticalAlign=middle;resizable=0;points=[];" parent="w9QUHjWhNPm_sNAr3cFe-71" vertex="1" connectable="0">
          <mxGeometry x="-0.0266" y="2" relative="1" as="geometry">
            <mxPoint x="-16" y="-9" as="offset" />
          </mxGeometry>
        </mxCell>
        <mxCell id="w9QUHjWhNPm_sNAr3cFe-24" value="csc_im" style="shape=umlActor;verticalLabelPosition=bottom;verticalAlign=top;html=1;outlineConnect=0;" parent="1" vertex="1">
          <mxGeometry x="30" y="770" width="30" height="60" as="geometry" />
        </mxCell>
        <mxCell id="w9QUHjWhNPm_sNAr3cFe-29" style="edgeStyle=orthogonalEdgeStyle;rounded=0;orthogonalLoop=1;jettySize=auto;html=1;exitX=0;exitY=0.3333333333333333;exitDx=0;exitDy=0;exitPerimeter=0;" parent="1" source="w9QUHjWhNPm_sNAr3cFe-28" target="w9QUHjWhNPm_sNAr3cFe-21" edge="1">
          <mxGeometry relative="1" as="geometry" />
        </mxCell>
        <mxCell id="w9QUHjWhNPm_sNAr3cFe-53" style="edgeStyle=none;rounded=0;orthogonalLoop=1;jettySize=auto;html=1;exitX=0;exitY=0.3333333333333333;exitDx=0;exitDy=0;exitPerimeter=0;entryX=0.5;entryY=1;entryDx=0;entryDy=0;entryPerimeter=0;" parent="1" source="w9QUHjWhNPm_sNAr3cFe-28" target="w9QUHjWhNPm_sNAr3cFe-31" edge="1">
          <mxGeometry relative="1" as="geometry" />
        </mxCell>
        <mxCell id="w9QUHjWhNPm_sNAr3cFe-54" value="&lt;span style=&quot;color: rgba(0, 0, 0, 0); font-family: monospace; font-size: 0px; text-align: start; background-color: rgb(248, 249, 250);&quot;&gt;%3CmxGraphModel%3E%3Croot%3E%3CmxCell%20id%3D%220%22%2F%3E%3CmxCell%20id%3D%221%22%20parent%3D%220%22%2F%3E%3CmxCell%20id%3D%222%22%20value%3D%22im_plat_msg_retry%22%20style%3D%22text%3Bhtml%3D1%3Balign%3Dcenter%3BverticalAlign%3Dmiddle%3Bresizable%3D0%3Bpoints%3D%5B%5D%3Bautosize%3D1%3BstrokeColor%3Dnone%3BfillColor%3Dnone%3B%22%20vertex%3D%221%22%20parent%3D%221%22%3E%3CmxGeometry%20x%3D%2290%22%20y%3D%22805%22%20width%3D%22120%22%20height%3D%2230%22%20as%3D%22geometry%22%2F%3E%3C%2FmxCell%3E%3C%2Froot%3E%3C%2FmxGraphModel%3E&lt;/span&gt;" style="edgeLabel;html=1;align=center;verticalAlign=middle;resizable=0;points=[];" parent="w9QUHjWhNPm_sNAr3cFe-53" vertex="1" connectable="0">
          <mxGeometry x="-0.0943" y="-1" relative="1" as="geometry">
            <mxPoint as="offset" />
          </mxGeometry>
        </mxCell>
        <mxCell id="w9QUHjWhNPm_sNAr3cFe-28" value="csc_im" style="shape=umlActor;verticalLabelPosition=bottom;verticalAlign=top;html=1;outlineConnect=0;" parent="1" vertex="1">
          <mxGeometry x="780" y="775" width="30" height="60" as="geometry" />
        </mxCell>
        <mxCell id="w9QUHjWhNPm_sNAr3cFe-30" value="&lt;span style=&quot;font-size: 11px; background-color: rgb(255, 255, 255);&quot;&gt;dialog_event&lt;/span&gt;" style="text;html=1;align=center;verticalAlign=middle;resizable=0;points=[];autosize=1;strokeColor=none;fillColor=none;" parent="1" vertex="1">
          <mxGeometry x="645" y="765" width="90" height="30" as="geometry" />
        </mxCell>
        <mxCell id="w9QUHjWhNPm_sNAr3cFe-31" value="" style="shape=cylinder3;whiteSpace=wrap;html=1;boundedLbl=1;backgroundOutline=1;size=15;rotation=-90;fillColor=#dae8fc;strokeColor=#6c8ebf;" parent="1" vertex="1">
          <mxGeometry x="365" y="760" width="60" height="250" as="geometry" />
        </mxCell>
        <mxCell id="w9QUHjWhNPm_sNAr3cFe-32" value="csc_im_hk4e_msg_retry" style="text;html=1;strokeColor=none;fillColor=none;align=center;verticalAlign=middle;whiteSpace=wrap;rounded=0;" parent="1" vertex="1">
          <mxGeometry x="365" y="870" width="60" height="30" as="geometry" />
        </mxCell>
        <mxCell id="w9QUHjWhNPm_sNAr3cFe-42" value="quality_on_dialog_event" style="text;html=1;align=center;verticalAlign=middle;resizable=0;points=[];autosize=1;strokeColor=none;fillColor=none;" parent="1" vertex="1">
          <mxGeometry x="70" y="710" width="150" height="30" as="geometry" />
        </mxCell>
        <mxCell id="w9QUHjWhNPm_sNAr3cFe-45" value="im_plat_msg_retry" style="text;html=1;align=center;verticalAlign=middle;resizable=0;points=[];autosize=1;strokeColor=none;fillColor=none;" parent="1" vertex="1">
          <mxGeometry x="90" y="805" width="120" height="30" as="geometry" />
        </mxCell>
        <mxCell id="w9QUHjWhNPm_sNAr3cFe-49" value="im_plat_msg_master" style="text;html=1;align=center;verticalAlign=middle;resizable=0;points=[];autosize=1;strokeColor=none;fillColor=none;" parent="1" vertex="1">
          <mxGeometry x="605" y="185" width="130" height="30" as="geometry" />
        </mxCell>
        <mxCell id="w9QUHjWhNPm_sNAr3cFe-50" value="im_plat_msg_slave" style="text;html=1;align=center;verticalAlign=middle;resizable=0;points=[];autosize=1;strokeColor=none;fillColor=none;" parent="1" vertex="1">
          <mxGeometry x="650" y="295" width="130" height="30" as="geometry" />
        </mxCell>
        <mxCell id="w9QUHjWhNPm_sNAr3cFe-55" value="&lt;span style=&quot;color: rgba(0, 0, 0, 0); font-family: monospace; font-size: 0px; text-align: start;&quot;&gt;%3CmxGraphModel%3E%3Croot%3E%3CmxCell%20id%3D%220%22%2F%3E%3CmxCell%20id%3D%221%22%20parent%3D%220%22%2F%3E%3CmxCell%20id%3D%222%22%20value%3D%22im_plat_msg_retry%22%20style%3D%22text%3Bhtml%3D1%3Balign%3Dcenter%3BverticalAlign%3Dmiddle%3Bresizable%3D0%3Bpoints%3D%5B%5D%3Bautosize%3D1%3BstrokeColor%3Dnone%3BfillColor%3Dnone%3B%22%20vertex%3D%221%22%20parent%3D%221%22%3E%3CmxGeometry%20x%3D%2290%22%20y%3D%22805%22%20width%3D%22120%22%20height%3D%2230%22%20as%3D%22geometry%22%2F%3E%3C%2FmxCell%3E%3C%2Froot%3E%3C%2FmxGraphModel%3E&lt;/span&gt;" style="text;html=1;align=center;verticalAlign=middle;resizable=0;points=[];autosize=1;strokeColor=none;fillColor=none;" parent="1" vertex="1">
          <mxGeometry x="670" y="835" width="20" height="30" as="geometry" />
        </mxCell>
        <mxCell id="w9QUHjWhNPm_sNAr3cFe-56" value="im_plat_msg_retry" style="text;html=1;align=center;verticalAlign=middle;resizable=0;points=[];autosize=1;strokeColor=none;fillColor=none;" parent="1" vertex="1">
          <mxGeometry x="630" y="830" width="120" height="30" as="geometry" />
        </mxCell>
        <mxCell id="w9QUHjWhNPm_sNAr3cFe-57" value="" style="shape=cylinder3;whiteSpace=wrap;html=1;boundedLbl=1;backgroundOutline=1;size=15;rotation=-90;fillColor=#dae8fc;strokeColor=#6c8ebf;" parent="1" vertex="1">
          <mxGeometry x="365" y="460" width="60" height="250" as="geometry" />
        </mxCell>
        <mxCell id="w9QUHjWhNPm_sNAr3cFe-58" value="csc_im_hk4e_cn_msg" style="text;html=1;strokeColor=none;fillColor=none;align=center;verticalAlign=middle;whiteSpace=wrap;rounded=0;" parent="1" vertex="1">
          <mxGeometry x="368.16" y="570" width="60" height="30" as="geometry" />
        </mxCell>
        <mxCell id="w9QUHjWhNPm_sNAr3cFe-60" style="edgeStyle=none;rounded=0;orthogonalLoop=1;jettySize=auto;html=1;entryX=0.5;entryY=1;entryDx=0;entryDy=0;entryPerimeter=0;" parent="1" target="w9QUHjWhNPm_sNAr3cFe-57" edge="1">
          <mxGeometry relative="1" as="geometry">
            <mxPoint x="780" y="800" as="sourcePoint" />
          </mxGeometry>
        </mxCell>
        <mxCell id="w9QUHjWhNPm_sNAr3cFe-70" style="edgeStyle=none;rounded=0;orthogonalLoop=1;jettySize=auto;html=1;exitX=1;exitY=0.3333333333333333;exitDx=0;exitDy=0;exitPerimeter=0;entryX=0.5;entryY=0;entryDx=0;entryDy=0;entryPerimeter=0;" parent="1" source="w9QUHjWhNPm_sNAr3cFe-69" target="w9QUHjWhNPm_sNAr3cFe-2" edge="1">
          <mxGeometry relative="1" as="geometry" />
        </mxCell>
        <mxCell id="w9QUHjWhNPm_sNAr3cFe-69" value="im中台" style="shape=umlActor;verticalLabelPosition=bottom;verticalAlign=top;html=1;outlineConnect=0;" parent="1" vertex="1">
          <mxGeometry x="70" y="230" width="30" height="60" as="geometry" />
        </mxCell>
      </root>
    </mxGraphModel>
  </diagram>
  <diagram id="GgqzXHTlg48_uHj0Dxy1" name="人工客服接单">
    <mxGraphModel dx="1214" dy="703" grid="1" gridSize="10" guides="1" tooltips="1" connect="1" arrows="1" fold="1" page="1" pageScale="1" pageWidth="827" pageHeight="1169" math="0" shadow="0">
      <root>
        <mxCell id="0" />
        <mxCell id="1" parent="0" />
        <mxCell id="sHJsG-sWG9-x7VDErMTo-24" style="edgeStyle=orthogonalEdgeStyle;rounded=0;orthogonalLoop=1;jettySize=auto;html=1;exitX=0.5;exitY=0;exitDx=0;exitDy=0;entryX=0.5;entryY=1;entryDx=0;entryDy=0;entryPerimeter=0;dashed=1;fontColor=#000000;" parent="1" source="sHJsG-sWG9-x7VDErMTo-18" target="sHJsG-sWG9-x7VDErMTo-12" edge="1">
          <mxGeometry relative="1" as="geometry" />
        </mxCell>
        <mxCell id="sHJsG-sWG9-x7VDErMTo-18" value="" style="ellipse;whiteSpace=wrap;html=1;aspect=fixed;fontColor=#000000;dashed=1;" parent="1" vertex="1">
          <mxGeometry x="620" y="405" width="180" height="180" as="geometry" />
        </mxCell>
        <mxCell id="sHJsG-sWG9-x7VDErMTo-1" value="" style="shape=actor;whiteSpace=wrap;html=1;fillColor=#cce5ff;strokeColor=#36393d;" parent="1" vertex="1">
          <mxGeometry x="659" y="438" width="30" height="45" as="geometry" />
        </mxCell>
        <mxCell id="sHJsG-sWG9-x7VDErMTo-6" style="edgeStyle=orthogonalEdgeStyle;rounded=0;orthogonalLoop=1;jettySize=auto;html=1;exitX=0.75;exitY=1;exitDx=0;exitDy=0;entryX=0.75;entryY=0;entryDx=0;entryDy=0;" parent="1" source="sHJsG-sWG9-x7VDErMTo-3" target="sHJsG-sWG9-x7VDErMTo-4" edge="1">
          <mxGeometry relative="1" as="geometry" />
        </mxCell>
        <mxCell id="sHJsG-sWG9-x7VDErMTo-3" value="2、转人工客服" style="rounded=1;whiteSpace=wrap;html=1;fillColor=#1ba1e2;fontColor=#ffffff;strokeColor=#006EAF;" parent="1" vertex="1">
          <mxGeometry x="80" y="240" width="120" height="40" as="geometry" />
        </mxCell>
        <mxCell id="sHJsG-sWG9-x7VDErMTo-8" style="edgeStyle=orthogonalEdgeStyle;rounded=0;orthogonalLoop=1;jettySize=auto;html=1;exitX=0.25;exitY=0;exitDx=0;exitDy=0;entryX=0.25;entryY=1;entryDx=0;entryDy=0;" parent="1" source="sHJsG-sWG9-x7VDErMTo-4" target="sHJsG-sWG9-x7VDErMTo-3" edge="1">
          <mxGeometry relative="1" as="geometry" />
        </mxCell>
        <mxCell id="sHJsG-sWG9-x7VDErMTo-10" style="edgeStyle=orthogonalEdgeStyle;rounded=0;orthogonalLoop=1;jettySize=auto;html=1;exitX=0.5;exitY=1;exitDx=0;exitDy=0;entryX=0.5;entryY=0;entryDx=0;entryDy=0;" parent="1" source="sHJsG-sWG9-x7VDErMTo-4" target="sHJsG-sWG9-x7VDErMTo-5" edge="1">
          <mxGeometry relative="1" as="geometry" />
        </mxCell>
        <mxCell id="sHJsG-sWG9-x7VDErMTo-11" value="rpop" style="edgeLabel;html=1;align=center;verticalAlign=middle;resizable=0;points=[];fontColor=#FF3333;" parent="sHJsG-sWG9-x7VDErMTo-10" vertex="1" connectable="0">
          <mxGeometry x="-0.1" y="3" relative="1" as="geometry">
            <mxPoint x="17" as="offset" />
          </mxGeometry>
        </mxCell>
        <mxCell id="sHJsG-sWG9-x7VDErMTo-16" style="edgeStyle=orthogonalEdgeStyle;rounded=0;orthogonalLoop=1;jettySize=auto;html=1;exitX=1;exitY=0.5;exitDx=0;exitDy=0;entryX=0.5;entryY=0;entryDx=0;entryDy=0;entryPerimeter=0;fontColor=#FF3333;dashed=1;" parent="1" source="sHJsG-sWG9-x7VDErMTo-4" target="sHJsG-sWG9-x7VDErMTo-12" edge="1">
          <mxGeometry relative="1" as="geometry" />
        </mxCell>
        <mxCell id="sHJsG-sWG9-x7VDErMTo-4" value="等待队列" style="rounded=1;whiteSpace=wrap;html=1;fillColor=#1ba1e2;fontColor=#ffffff;strokeColor=#006EAF;" parent="1" vertex="1">
          <mxGeometry x="80" y="360" width="120" height="40" as="geometry" />
        </mxCell>
        <mxCell id="sHJsG-sWG9-x7VDErMTo-5" value="3、调度任务" style="rounded=1;whiteSpace=wrap;html=1;fillColor=#1ba1e2;fontColor=#ffffff;strokeColor=#006EAF;" parent="1" vertex="1">
          <mxGeometry x="80" y="480" width="120" height="40" as="geometry" />
        </mxCell>
        <mxCell id="sHJsG-sWG9-x7VDErMTo-7" value="&lt;font color=&quot;#ff3333&quot;&gt;lpush&lt;/font&gt;" style="text;html=1;align=center;verticalAlign=middle;resizable=0;points=[];autosize=1;strokeColor=none;fillColor=none;" parent="1" vertex="1">
          <mxGeometry x="170" y="310" width="50" height="30" as="geometry" />
        </mxCell>
        <mxCell id="sHJsG-sWG9-x7VDErMTo-9" value="&lt;font color=&quot;#ff3333&quot;&gt;wait num&lt;/font&gt;" style="text;html=1;align=center;verticalAlign=middle;resizable=0;points=[];autosize=1;strokeColor=none;fillColor=none;" parent="1" vertex="1">
          <mxGeometry x="76" y="310" width="70" height="30" as="geometry" />
        </mxCell>
        <mxCell id="sHJsG-sWG9-x7VDErMTo-12" value="" style="shape=cylinder3;whiteSpace=wrap;html=1;boundedLbl=1;backgroundOutline=1;size=15;rotation=-90;" parent="1" vertex="1">
          <mxGeometry x="350" y="315" width="80" height="130" as="geometry" />
        </mxCell>
        <mxCell id="sHJsG-sWG9-x7VDErMTo-13" value="&lt;b&gt;redis集群&lt;/b&gt;" style="text;html=1;align=center;verticalAlign=middle;resizable=0;points=[];autosize=1;strokeColor=none;fillColor=none;" parent="1" vertex="1">
          <mxGeometry x="360" y="390" width="80" height="30" as="geometry" />
        </mxCell>
        <mxCell id="sHJsG-sWG9-x7VDErMTo-14" value="&lt;pre style=&quot;background-color:#2b2b2b;color:#a9b7c6;font-family:&#39;JetBrains Mono&#39;,monospace;font-size:9.8pt;&quot;&gt;&lt;br&gt;&lt;/pre&gt;" style="text;html=1;strokeColor=none;fillColor=none;align=center;verticalAlign=middle;whiteSpace=wrap;rounded=0;" parent="1" vertex="1">
          <mxGeometry x="430" y="220" width="60" height="30" as="geometry" />
        </mxCell>
        <mxCell id="sHJsG-sWG9-x7VDErMTo-15" value="&lt;div&gt;&lt;b&gt;&lt;font color=&quot;#ff3333&quot;&gt;wait_queue&lt;/font&gt;&lt;/b&gt;&lt;/div&gt;&lt;div&gt;&lt;b&gt;&lt;font color=&quot;#ff3333&quot;&gt;kick_queue&lt;/font&gt;&lt;/b&gt;&lt;/div&gt;" style="text;html=1;strokeColor=none;fillColor=none;align=center;verticalAlign=middle;whiteSpace=wrap;rounded=0;" parent="1" vertex="1">
          <mxGeometry x="370" y="350" width="60" height="30" as="geometry" />
        </mxCell>
        <mxCell id="sHJsG-sWG9-x7VDErMTo-17" value="list" style="text;html=1;strokeColor=none;fillColor=none;align=center;verticalAlign=middle;whiteSpace=wrap;rounded=0;fontColor=#FF3333;" parent="1" vertex="1">
          <mxGeometry x="230" y="350" width="60" height="30" as="geometry" />
        </mxCell>
        <mxCell id="sHJsG-sWG9-x7VDErMTo-19" value="" style="shape=actor;whiteSpace=wrap;html=1;fillColor=#cce5ff;strokeColor=#36393d;" parent="1" vertex="1">
          <mxGeometry x="699" y="438" width="31" height="46.5" as="geometry" />
        </mxCell>
        <mxCell id="sHJsG-sWG9-x7VDErMTo-20" value="" style="shape=actor;whiteSpace=wrap;html=1;fillColor=#cce5ff;strokeColor=#36393d;" parent="1" vertex="1">
          <mxGeometry x="739" y="438" width="30" height="45" as="geometry" />
        </mxCell>
        <mxCell id="sHJsG-sWG9-x7VDErMTo-21" value="" style="shape=actor;whiteSpace=wrap;html=1;fillColor=#cce5ff;strokeColor=#36393d;" parent="1" vertex="1">
          <mxGeometry x="659" y="498" width="30" height="45" as="geometry" />
        </mxCell>
        <mxCell id="sHJsG-sWG9-x7VDErMTo-22" value="" style="shape=actor;whiteSpace=wrap;html=1;fillColor=#cce5ff;strokeColor=#36393d;" parent="1" vertex="1">
          <mxGeometry x="699" y="498" width="30" height="45" as="geometry" />
        </mxCell>
        <mxCell id="sHJsG-sWG9-x7VDErMTo-23" value="" style="shape=actor;whiteSpace=wrap;html=1;fillColor=#cce5ff;strokeColor=#36393d;" parent="1" vertex="1">
          <mxGeometry x="739" y="498" width="30" height="45" as="geometry" />
        </mxCell>
        <mxCell id="sHJsG-sWG9-x7VDErMTo-25" value="&lt;b&gt;在线客服&lt;/b&gt;" style="text;html=1;strokeColor=none;fillColor=none;align=center;verticalAlign=middle;whiteSpace=wrap;rounded=0;dashed=1;fontColor=#000000;" parent="1" vertex="1">
          <mxGeometry x="684" y="555" width="60" height="30" as="geometry" />
        </mxCell>
        <mxCell id="sHJsG-sWG9-x7VDErMTo-26" value="" style="rounded=0;whiteSpace=wrap;html=1;dashed=1;fontColor=#000000;" parent="1" vertex="1">
          <mxGeometry x="240" y="466" width="290" height="114" as="geometry" />
        </mxCell>
        <mxCell id="sHJsG-sWG9-x7VDErMTo-27" value="" style="shape=actor;whiteSpace=wrap;html=1;fillColor=#cce5ff;strokeColor=#36393d;" parent="1" vertex="1">
          <mxGeometry x="463" y="480" width="30" height="45" as="geometry" />
        </mxCell>
        <mxCell id="sHJsG-sWG9-x7VDErMTo-29" value="&lt;b&gt;等待最久的用户&lt;/b&gt;" style="text;html=1;strokeColor=none;fillColor=none;align=center;verticalAlign=middle;whiteSpace=wrap;rounded=0;dashed=1;fontColor=#000000;" parent="1" vertex="1">
          <mxGeometry x="260" y="538" width="90" height="30" as="geometry" />
        </mxCell>
        <mxCell id="sHJsG-sWG9-x7VDErMTo-30" value="&lt;b&gt;空闲的客服&lt;/b&gt;" style="text;html=1;strokeColor=none;fillColor=none;align=center;verticalAlign=middle;whiteSpace=wrap;rounded=0;dashed=1;fontColor=#000000;" parent="1" vertex="1">
          <mxGeometry x="440" y="537" width="76" height="30" as="geometry" />
        </mxCell>
        <mxCell id="sHJsG-sWG9-x7VDErMTo-31" value="" style="shape=umlActor;verticalLabelPosition=bottom;verticalAlign=top;html=1;outlineConnect=0;fontColor=#000000;" parent="1" vertex="1">
          <mxGeometry x="280" y="481" width="30" height="60" as="geometry" />
        </mxCell>
        <mxCell id="sHJsG-sWG9-x7VDErMTo-32" value="" style="endArrow=classic;html=1;rounded=0;fontColor=#000000;entryX=0.1;entryY=0.5;entryDx=0;entryDy=0;entryPerimeter=0;startArrow=none;" parent="1" edge="1" target="sHJsG-sWG9-x7VDErMTo-27" source="9jwESAL--nOWyYZ6g5MW-5">
          <mxGeometry width="50" height="50" relative="1" as="geometry">
            <mxPoint x="320" y="503" as="sourcePoint" />
            <mxPoint x="390" y="503" as="targetPoint" />
          </mxGeometry>
        </mxCell>
        <mxCell id="sHJsG-sWG9-x7VDErMTo-33" value="" style="endArrow=classic;html=1;rounded=0;fontColor=#000000;exitX=1;exitY=0.5;exitDx=0;exitDy=0;" parent="1" source="sHJsG-sWG9-x7VDErMTo-5" edge="1">
          <mxGeometry width="50" height="50" relative="1" as="geometry">
            <mxPoint x="210" y="499.5" as="sourcePoint" />
            <mxPoint x="270" y="499.5" as="targetPoint" />
          </mxGeometry>
        </mxCell>
        <mxCell id="sHJsG-sWG9-x7VDErMTo-34" value="" style="endArrow=classic;html=1;rounded=0;fontColor=#000000;" parent="1" edge="1">
          <mxGeometry width="50" height="50" relative="1" as="geometry">
            <mxPoint x="620" y="503" as="sourcePoint" />
            <mxPoint x="530" y="503" as="targetPoint" />
          </mxGeometry>
        </mxCell>
        <mxCell id="9jwESAL--nOWyYZ6g5MW-3" value="&lt;span style=&quot;color: rgb(255, 51, 51); font-size: 12px; background-color: rgb(248, 249, 250);&quot;&gt;路由匹配&lt;/span&gt;" style="edgeLabel;html=1;align=center;verticalAlign=middle;resizable=0;points=[];" vertex="1" connectable="0" parent="sHJsG-sWG9-x7VDErMTo-34">
          <mxGeometry x="0.0222" relative="1" as="geometry">
            <mxPoint as="offset" />
          </mxGeometry>
        </mxCell>
        <mxCell id="sHJsG-sWG9-x7VDErMTo-36" value="sorted set" style="text;html=1;strokeColor=none;fillColor=none;align=center;verticalAlign=middle;whiteSpace=wrap;rounded=0;fontColor=#FF3333;" parent="1" vertex="1">
          <mxGeometry x="520" y="350" width="60" height="30" as="geometry" />
        </mxCell>
        <mxCell id="9jwESAL--nOWyYZ6g5MW-2" style="edgeStyle=orthogonalEdgeStyle;rounded=0;orthogonalLoop=1;jettySize=auto;html=1;exitX=0.5;exitY=1;exitDx=0;exitDy=0;" edge="1" parent="1" source="9jwESAL--nOWyYZ6g5MW-1" target="sHJsG-sWG9-x7VDErMTo-3">
          <mxGeometry relative="1" as="geometry" />
        </mxCell>
        <mxCell id="9jwESAL--nOWyYZ6g5MW-1" value="1、人工聊天入口查询" style="rounded=1;whiteSpace=wrap;html=1;fillColor=#1ba1e2;fontColor=#ffffff;strokeColor=#006EAF;" vertex="1" parent="1">
          <mxGeometry x="80" y="150" width="120" height="40" as="geometry" />
        </mxCell>
        <mxCell id="9jwESAL--nOWyYZ6g5MW-5" value="4、消息聊天" style="rounded=1;whiteSpace=wrap;html=1;fillColor=#1ba1e2;fontColor=#ffffff;strokeColor=#006EAF;" vertex="1" parent="1">
          <mxGeometry x="335" y="485" width="100" height="35" as="geometry" />
        </mxCell>
        <mxCell id="9jwESAL--nOWyYZ6g5MW-7" value="" style="endArrow=none;html=1;rounded=0;fontColor=#000000;entryX=0.1;entryY=0.5;entryDx=0;entryDy=0;entryPerimeter=0;" edge="1" parent="1" target="9jwESAL--nOWyYZ6g5MW-5">
          <mxGeometry width="50" height="50" relative="1" as="geometry">
            <mxPoint x="320" y="503" as="sourcePoint" />
            <mxPoint x="466" y="502.5" as="targetPoint" />
          </mxGeometry>
        </mxCell>
      </root>
    </mxGraphModel>
  </diagram>
  <diagram id="ZF499NIAIVICwSCnEleB" name="第 4 页">
    <mxGraphModel dx="1234" dy="708" grid="1" gridSize="10" guides="1" tooltips="1" connect="1" arrows="1" fold="1" page="1" pageScale="1" pageWidth="827" pageHeight="1169" math="0" shadow="0">
      <root>
        <mxCell id="0" />
        <mxCell id="1" parent="0" />
        <mxCell id="4jYZErEWDdpEDOr6-1n9-47" style="edgeStyle=orthogonalEdgeStyle;rounded=0;orthogonalLoop=1;jettySize=auto;html=1;" edge="1" parent="1" source="4jYZErEWDdpEDOr6-1n9-35">
          <mxGeometry relative="1" as="geometry">
            <mxPoint x="352" y="360" as="targetPoint" />
          </mxGeometry>
        </mxCell>
        <mxCell id="4jYZErEWDdpEDOr6-1n9-48" value="http请求" style="edgeLabel;html=1;align=center;verticalAlign=middle;resizable=0;points=[];" vertex="1" connectable="0" parent="4jYZErEWDdpEDOr6-1n9-47">
          <mxGeometry x="0.0889" y="1" relative="1" as="geometry">
            <mxPoint as="offset" />
          </mxGeometry>
        </mxCell>
        <mxCell id="4jYZErEWDdpEDOr6-1n9-50" style="edgeStyle=none;rounded=0;orthogonalLoop=1;jettySize=auto;html=1;entryX=0.5;entryY=0;entryDx=0;entryDy=0;" edge="1" parent="1" target="4jYZErEWDdpEDOr6-1n9-46">
          <mxGeometry relative="1" as="geometry">
            <mxPoint x="352" y="270" as="sourcePoint" />
          </mxGeometry>
        </mxCell>
        <mxCell id="4jYZErEWDdpEDOr6-1n9-35" value="玩家" style="shape=umlActor;verticalLabelPosition=bottom;verticalAlign=top;html=1;outlineConnect=0;fillColor=#ffcc99;strokeColor=#36393d;" vertex="1" parent="1">
          <mxGeometry x="337" y="210" width="30" height="60" as="geometry" />
        </mxCell>
        <mxCell id="4jYZErEWDdpEDOr6-1n9-78" style="edgeStyle=none;rounded=0;orthogonalLoop=1;jettySize=auto;html=1;exitX=0.5;exitY=0;exitDx=0;exitDy=0;exitPerimeter=0;entryX=0.5;entryY=1;entryDx=0;entryDy=0;" edge="1" parent="1" source="4jYZErEWDdpEDOr6-1n9-42" target="4jYZErEWDdpEDOr6-1n9-55">
          <mxGeometry relative="1" as="geometry" />
        </mxCell>
        <mxCell id="4jYZErEWDdpEDOr6-1n9-80" value="localcache同步" style="edgeLabel;html=1;align=center;verticalAlign=middle;resizable=0;points=[];" vertex="1" connectable="0" parent="4jYZErEWDdpEDOr6-1n9-78">
          <mxGeometry x="0.2897" relative="1" as="geometry">
            <mxPoint as="offset" />
          </mxGeometry>
        </mxCell>
        <mxCell id="4jYZErEWDdpEDOr6-1n9-42" value="mysql" style="shape=cylinder3;whiteSpace=wrap;html=1;boundedLbl=1;backgroundOutline=1;size=15;fillColor=#60a917;strokeColor=#2D7600;fontColor=#ffffff;" vertex="1" parent="1">
          <mxGeometry x="420" y="640" width="60" height="80" as="geometry" />
        </mxCell>
        <mxCell id="4jYZErEWDdpEDOr6-1n9-71" value="消息消费" style="edgeStyle=none;rounded=0;orthogonalLoop=1;jettySize=auto;html=1;exitX=0.5;exitY=1;exitDx=0;exitDy=0;entryX=0.5;entryY=0;entryDx=0;entryDy=0;" edge="1" parent="1" source="4jYZErEWDdpEDOr6-1n9-45" target="4jYZErEWDdpEDOr6-1n9-57">
          <mxGeometry relative="1" as="geometry" />
        </mxCell>
        <mxCell id="4jYZErEWDdpEDOr6-1n9-45" value="MQ" style="shape=dataStorage;whiteSpace=wrap;html=1;fixedSize=1;fillColor=#b1ddf0;strokeColor=#10739e;" vertex="1" parent="1">
          <mxGeometry x="108" y="500" width="100" height="80" as="geometry" />
        </mxCell>
        <mxCell id="4jYZErEWDdpEDOr6-1n9-53" style="edgeStyle=none;rounded=0;orthogonalLoop=1;jettySize=auto;html=1;exitX=0.5;exitY=1;exitDx=0;exitDy=0;" edge="1" parent="1" source="4jYZErEWDdpEDOr6-1n9-46" target="4jYZErEWDdpEDOr6-1n9-45">
          <mxGeometry relative="1" as="geometry" />
        </mxCell>
        <mxCell id="4jYZErEWDdpEDOr6-1n9-58" value="消息发送" style="edgeLabel;html=1;align=center;verticalAlign=middle;resizable=0;points=[];" vertex="1" connectable="0" parent="4jYZErEWDdpEDOr6-1n9-53">
          <mxGeometry x="-0.175" y="-1" relative="1" as="geometry">
            <mxPoint as="offset" />
          </mxGeometry>
        </mxCell>
        <mxCell id="4jYZErEWDdpEDOr6-1n9-46" value="im中台" style="rounded=0;whiteSpace=wrap;html=1;fillColor=#d5e8d4;strokeColor=#82b366;" vertex="1" parent="1">
          <mxGeometry x="100" y="360" width="116" height="60" as="geometry" />
        </mxCell>
        <mxCell id="4jYZErEWDdpEDOr6-1n9-51" value="ws长连接" style="text;html=1;align=center;verticalAlign=middle;resizable=0;points=[];autosize=1;strokeColor=none;fillColor=none;" vertex="1" parent="1">
          <mxGeometry x="195" y="305" width="70" height="30" as="geometry" />
        </mxCell>
        <mxCell id="4jYZErEWDdpEDOr6-1n9-92" style="edgeStyle=none;rounded=0;orthogonalLoop=1;jettySize=auto;html=1;exitX=0.25;exitY=1;exitDx=0;exitDy=0;entryX=0.5;entryY=0;entryDx=0;entryDy=0;entryPerimeter=0;fontColor=#0066CC;" edge="1" parent="1" source="4jYZErEWDdpEDOr6-1n9-55" target="4jYZErEWDdpEDOr6-1n9-91">
          <mxGeometry relative="1" as="geometry" />
        </mxCell>
        <mxCell id="4jYZErEWDdpEDOr6-1n9-55" value="server&lt;br&gt;&lt;br&gt;&lt;br&gt;" style="rounded=1;whiteSpace=wrap;html=1;fillColor=#589187;" vertex="1" parent="1">
          <mxGeometry x="294" y="360" width="126" height="80" as="geometry" />
        </mxCell>
        <mxCell id="4jYZErEWDdpEDOr6-1n9-97" style="edgeStyle=none;rounded=0;orthogonalLoop=1;jettySize=auto;html=1;exitX=0;exitY=0.25;exitDx=0;exitDy=0;entryX=1;entryY=0.5;entryDx=0;entryDy=0;entryPerimeter=0;fontColor=#000000;" edge="1" parent="1" source="4jYZErEWDdpEDOr6-1n9-56" target="4jYZErEWDdpEDOr6-1n9-42">
          <mxGeometry relative="1" as="geometry" />
        </mxCell>
        <mxCell id="4jYZErEWDdpEDOr6-1n9-99" style="edgeStyle=none;rounded=0;orthogonalLoop=1;jettySize=auto;html=1;exitX=0;exitY=0.75;exitDx=0;exitDy=0;entryX=1;entryY=0.5;entryDx=0;entryDy=0;entryPerimeter=0;fontColor=#000000;" edge="1" parent="1" source="4jYZErEWDdpEDOr6-1n9-56" target="4jYZErEWDdpEDOr6-1n9-61">
          <mxGeometry relative="1" as="geometry" />
        </mxCell>
        <mxCell id="4jYZErEWDdpEDOr6-1n9-102" value="查询" style="edgeLabel;html=1;align=center;verticalAlign=middle;resizable=0;points=[];fontColor=#000000;" vertex="1" connectable="0" parent="4jYZErEWDdpEDOr6-1n9-99">
          <mxGeometry x="0.12" relative="1" as="geometry">
            <mxPoint x="-3" y="-16" as="offset" />
          </mxGeometry>
        </mxCell>
        <mxCell id="4jYZErEWDdpEDOr6-1n9-100" style="edgeStyle=none;rounded=0;orthogonalLoop=1;jettySize=auto;html=1;exitX=0;exitY=0.75;exitDx=0;exitDy=0;entryX=1;entryY=0;entryDx=0;entryDy=52.5;entryPerimeter=0;fontColor=#000000;" edge="1" parent="1" source="4jYZErEWDdpEDOr6-1n9-56" target="4jYZErEWDdpEDOr6-1n9-42">
          <mxGeometry relative="1" as="geometry" />
        </mxCell>
        <mxCell id="4jYZErEWDdpEDOr6-1n9-101" value="查询" style="edgeLabel;html=1;align=center;verticalAlign=middle;resizable=0;points=[];fontColor=#000000;" vertex="1" connectable="0" parent="4jYZErEWDdpEDOr6-1n9-100">
          <mxGeometry x="-0.0234" y="-3" relative="1" as="geometry">
            <mxPoint x="11" y="-5" as="offset" />
          </mxGeometry>
        </mxCell>
        <mxCell id="4jYZErEWDdpEDOr6-1n9-56" value="admin" style="rounded=1;whiteSpace=wrap;html=1;fillColor=#589187;" vertex="1" parent="1">
          <mxGeometry x="690" y="620" width="60" height="240" as="geometry" />
        </mxCell>
        <mxCell id="4jYZErEWDdpEDOr6-1n9-72" style="edgeStyle=none;rounded=0;orthogonalLoop=1;jettySize=auto;html=1;exitX=1;exitY=0.5;exitDx=0;exitDy=0;entryX=0;entryY=0;entryDx=0;entryDy=27.5;entryPerimeter=0;" edge="1" parent="1" source="4jYZErEWDdpEDOr6-1n9-57" target="4jYZErEWDdpEDOr6-1n9-42">
          <mxGeometry relative="1" as="geometry" />
        </mxCell>
        <mxCell id="4jYZErEWDdpEDOr6-1n9-74" value="消息存储" style="edgeLabel;html=1;align=center;verticalAlign=middle;resizable=0;points=[];" vertex="1" connectable="0" parent="4jYZErEWDdpEDOr6-1n9-72">
          <mxGeometry x="-0.2057" y="2" relative="1" as="geometry">
            <mxPoint as="offset" />
          </mxGeometry>
        </mxCell>
        <mxCell id="4jYZErEWDdpEDOr6-1n9-73" style="edgeStyle=none;rounded=0;orthogonalLoop=1;jettySize=auto;html=1;exitX=1;exitY=0.5;exitDx=0;exitDy=0;entryX=0;entryY=0;entryDx=0;entryDy=27.5;entryPerimeter=0;" edge="1" parent="1" source="4jYZErEWDdpEDOr6-1n9-57" target="4jYZErEWDdpEDOr6-1n9-61">
          <mxGeometry relative="1" as="geometry" />
        </mxCell>
        <mxCell id="4jYZErEWDdpEDOr6-1n9-75" value="消息存储" style="edgeLabel;html=1;align=center;verticalAlign=middle;resizable=0;points=[];" vertex="1" connectable="0" parent="4jYZErEWDdpEDOr6-1n9-73">
          <mxGeometry x="-0.2236" y="1" relative="1" as="geometry">
            <mxPoint as="offset" />
          </mxGeometry>
        </mxCell>
        <mxCell id="4jYZErEWDdpEDOr6-1n9-57" value="consumer" style="rounded=1;whiteSpace=wrap;html=1;fillColor=#589187;" vertex="1" parent="1">
          <mxGeometry x="98" y="660" width="120" height="60" as="geometry" />
        </mxCell>
        <mxCell id="4jYZErEWDdpEDOr6-1n9-61" value="es" style="shape=cylinder3;whiteSpace=wrap;html=1;boundedLbl=1;backgroundOutline=1;size=15;fillColor=#60a917;strokeColor=#2D7600;fontColor=#ffffff;" vertex="1" parent="1">
          <mxGeometry x="430" y="770" width="60" height="80" as="geometry" />
        </mxCell>
        <mxCell id="4jYZErEWDdpEDOr6-1n9-93" style="edgeStyle=none;rounded=0;orthogonalLoop=1;jettySize=auto;html=1;exitX=0;exitY=0.3333333333333333;exitDx=0;exitDy=0;exitPerimeter=0;entryX=1;entryY=0.25;entryDx=0;entryDy=0;fontColor=#0066CC;" edge="1" parent="1" source="4jYZErEWDdpEDOr6-1n9-62" target="4jYZErEWDdpEDOr6-1n9-56">
          <mxGeometry relative="1" as="geometry" />
        </mxCell>
        <mxCell id="4jYZErEWDdpEDOr6-1n9-95" value="路由&amp;amp;流量配置" style="edgeLabel;html=1;align=center;verticalAlign=middle;resizable=0;points=[];fontColor=#000000;" vertex="1" connectable="0" parent="4jYZErEWDdpEDOr6-1n9-93">
          <mxGeometry x="0.2843" y="-4" relative="1" as="geometry">
            <mxPoint x="35" y="-8" as="offset" />
          </mxGeometry>
        </mxCell>
        <mxCell id="4jYZErEWDdpEDOr6-1n9-94" style="edgeStyle=none;rounded=0;orthogonalLoop=1;jettySize=auto;html=1;exitX=0;exitY=0.3333333333333333;exitDx=0;exitDy=0;exitPerimeter=0;entryX=1;entryY=0.75;entryDx=0;entryDy=0;fontColor=#0066CC;" edge="1" parent="1" source="4jYZErEWDdpEDOr6-1n9-62" target="4jYZErEWDdpEDOr6-1n9-56">
          <mxGeometry relative="1" as="geometry" />
        </mxCell>
        <mxCell id="4jYZErEWDdpEDOr6-1n9-96" value="查询" style="edgeLabel;html=1;align=center;verticalAlign=middle;resizable=0;points=[];fontColor=#000000;" vertex="1" connectable="0" parent="4jYZErEWDdpEDOr6-1n9-94">
          <mxGeometry x="0.1564" y="4" relative="1" as="geometry">
            <mxPoint x="12" as="offset" />
          </mxGeometry>
        </mxCell>
        <mxCell id="4jYZErEWDdpEDOr6-1n9-62" value="&lt;font color=&quot;#0066cc&quot;&gt;客服&lt;/font&gt;" style="shape=umlActor;verticalLabelPosition=bottom;verticalAlign=top;html=1;outlineConnect=0;fillColor=#1ba1e2;strokeColor=#006EAF;fontColor=#ffffff;" vertex="1" parent="1">
          <mxGeometry x="900" y="700" width="30" height="60" as="geometry" />
        </mxCell>
        <mxCell id="4jYZErEWDdpEDOr6-1n9-79" value="localcache" style="rounded=1;whiteSpace=wrap;html=1;fillColor=#FFFFFF;" vertex="1" parent="1">
          <mxGeometry x="324" y="402" width="68" height="30" as="geometry" />
        </mxCell>
        <mxCell id="4jYZErEWDdpEDOr6-1n9-81" value="cronjob" style="rounded=1;whiteSpace=wrap;html=1;fillColor=#589187;" vertex="1" parent="1">
          <mxGeometry x="525" y="375" width="100" height="50" as="geometry" />
        </mxCell>
        <mxCell id="4jYZErEWDdpEDOr6-1n9-82" value="scheduler" style="rounded=1;whiteSpace=wrap;html=1;fillColor=#589187;" vertex="1" parent="1">
          <mxGeometry x="525" y="470" width="100" height="50" as="geometry" />
        </mxCell>
        <mxCell id="4jYZErEWDdpEDOr6-1n9-83" value="monitor" style="rounded=1;whiteSpace=wrap;html=1;fillColor=#589187;" vertex="1" parent="1">
          <mxGeometry x="530" y="570" width="100" height="50" as="geometry" />
        </mxCell>
        <mxCell id="4jYZErEWDdpEDOr6-1n9-91" value="redis" style="shape=cylinder3;whiteSpace=wrap;html=1;boundedLbl=1;backgroundOutline=1;size=15;fillColor=#60a917;strokeColor=#2D7600;fontColor=#ffffff;" vertex="1" parent="1">
          <mxGeometry x="277" y="560" width="60" height="80" as="geometry" />
        </mxCell>
        <mxCell id="4jYZErEWDdpEDOr6-1n9-98" value="配置入库" style="text;html=1;align=center;verticalAlign=middle;resizable=0;points=[];autosize=1;strokeColor=none;fillColor=none;fontColor=#000000;" vertex="1" parent="1">
          <mxGeometry x="540" y="660" width="70" height="30" as="geometry" />
        </mxCell>
        <mxCell id="4jYZErEWDdpEDOr6-1n9-103" value="" style="html=1;dropTarget=0;fontColor=#000000;fillColor=#589187;" vertex="1" parent="1">
          <mxGeometry x="610" y="285" width="140" height="55" as="geometry" />
        </mxCell>
        <mxCell id="4jYZErEWDdpEDOr6-1n9-104" value="" style="shape=module;jettyWidth=8;jettyHeight=4;fillColor=#b1ddf0;strokeColor=#10739e;" vertex="1" parent="4jYZErEWDdpEDOr6-1n9-103">
          <mxGeometry x="1" width="20" height="20" relative="1" as="geometry">
            <mxPoint x="-27" y="7" as="offset" />
          </mxGeometry>
        </mxCell>
      </root>
    </mxGraphModel>
  </diagram>
</mxfile>
